<?xml version="1.0" standalone="no"?><!DOCTYPE svg PUBLIC "-//W3C//DTD SVG 1.1//EN" "http://www.w3.org/Graphics/SVG/1.1/DTD/svg11.dtd"><svg t="1562048209210" class="icon" viewBox="0 0 1024 1024" version="1.1" xmlns="http://www.w3.org/2000/svg" p-id="1392" xmlns:xlink="http://www.w3.org/1999/xlink" width="32" height="32"><defs><style type="text/css"></style></defs><path d="M960 224v-64c0-54.4-41.6-96-96-96h-64v-64h64c89.6 0 160 70.4 160 160v64h-64z m0 288c0 169.6-92.8 316.8-233.6 393.6l105.6 118.4h-96l-86.4-86.4c-44.8 12.8-89.6 22.4-137.6 22.4s-96-6.4-137.6-22.4l-86.4 86.4h-96l105.6-118.4c-137.6-76.8-233.6-224-233.6-393.6 0-246.4 201.6-448 448-448s448 201.6 448 448z m-448-384c-211.2 0-384 172.8-384 384s172.8 384 384 384 384-172.8 384-384-172.8-384-384-384z m224 416h-224c-19.2 0-32-12.8-32-32v-256c0-19.2 12.8-32 32-32s32 12.8 32 32v224h192c19.2 0 32 12.8 32 32s-12.8 32-32 32z m-576-480c-54.4 0-96 41.6-96 96v64h-64v-64c0-89.6 70.4-160 160-160h64v64h-64z" p-id="1393" fill="#2095C2"></path></svg>