<?xml version="1.0" standalone="no"?>
<!DOCTYPE svg PUBLIC "-//W3C//DTD SVG 1.1//EN" "http://www.w3.org/Graphics/SVG/1.1/DTD/svg11.dtd" >
<svg xmlns="http://www.w3.org/2000/svg">
<metadata>Generated by IcoMoon</metadata>
<defs>
<font id="icomoon" horiz-adv-x="1024">
<font-face units-per-em="1024" ascent="960" descent="-64" />
<missing-glyph horiz-adv-x="1024" />
<glyph unicode="&#x20;" horiz-adv-x="512" d="" />
<glyph unicode="&#xe900;" glyph-name="Icon" horiz-adv-x="1707" d="M170.667 960l-170.667-170.667 853.333-853.333 853.333 853.333-170.667 170.667-682.667-682.667z" />
<glyph unicode="&#xe901;" glyph-name="Inactive1" d="M512 874.667c-235.52 0-426.667-191.147-426.667-426.667s191.147-426.667 426.667-426.667c235.52 0 426.667 191.147 426.667 426.667s-191.147 426.667-426.667 426.667zM554.667 149.333h-85.333v85.333h85.333v-85.333zM642.987 480l-38.4-39.253c-30.72-31.147-49.92-56.747-49.92-120.747h-85.333v21.333c0 46.933 19.2 89.6 49.92 120.747l52.907 53.76c15.787 15.36 25.173 36.693 25.173 60.16 0 46.933-38.4 85.333-85.333 85.333s-85.333-38.4-85.333-85.333h-85.333c0 94.293 76.373 170.667 170.667 170.667s170.667-76.373 170.667-170.667c0-37.547-15.36-71.68-39.68-96z" />
<glyph unicode="&#xe902;" glyph-name="product-combo" d="M853.333 960c94.257 0 170.667-76.41 170.667-170.667v-682.667c0-94.257-76.41-170.667-170.667-170.667h-682.667c-94.257 0-170.667 76.41-170.667 170.667v682.667c0 94.257 76.41 170.667 170.667 170.667h682.667zM514.977 789.333c-60.527 0-113.529-13.073-159.008-39.218s-80.62-63.539-105.426-112.182c-24.806-48.643-37.209-105.645-37.209-171.009v0-38.306c0-65.972 12.072-123.126 36.217-171.465s58.873-85.504 104.186-111.498c45.313-25.993 99.059-38.99 161.24-38.99 58.212 0 109.064 9.728 152.558 29.185s77.313 46.742 101.457 81.856c24.145 35.114 37.705 75.776 40.682 121.986v0h-160.744c-2.646-38.002-14.801-66.123-36.465-84.364s-54.16-27.361-97.488-27.361c-33.737 0-60.692 6.992-80.868 20.977s-34.811 35.57-43.907 64.755c-9.096 29.186-13.643 67.491-13.643 114.918v0 39.218c0 69.62 11.245 120.39 33.736 152.312s57.385 47.882 104.682 47.882c46.305 0 79.71-9.5 100.217-28.501s32.083-48.262 34.729-87.784v0h160.744c-4.631 46.515-18.77 87.632-42.419 123.354s-56.806 63.691-99.473 83.908c-42.667 20.217-93.933 30.326-153.798 30.326z" />
<glyph unicode="&#xe903;" glyph-name="product-part" d="M853.333 960c94.257 0 170.667-76.41 170.667-170.667v-682.667c0-94.257-76.41-170.667-170.667-170.667h-682.667c-94.257 0-170.667 76.41-170.667 170.667v682.667c0 94.257 76.41 170.667 170.667 170.667h682.667zM519.542 789.333h-263.542v-667.333h148.958v229.167h114.583c52.25 0 97.472 8.785 135.667 26.354s67.528 42.472 88 74.708c20.472 32.236 30.708 69.743 30.708 112.521 0 43.389-10.236 82.041-30.708 115.958s-49.958 60.5-88.458 79.75c-38.5 19.25-83.569 28.875-135.208 28.875v0zM519.542 669.25c23.528 0 43.083-4.812 58.667-14.438s27.042-22.382 34.375-38.271c7.333-15.889 11-33.458 11-52.708 0-28.417-8.555-50.951-25.667-67.604s-43.236-24.979-78.375-24.979h-114.583v198h114.583z" />
<glyph unicode="&#xe904;" glyph-name="check-ok" d="M512 960c-282.77 0-512-229.23-512-512s229.23-512 512-512c282.77 0 512 229.23 512 512s-229.23 512-512 512zM792.43 592.823l-342.894-342.894-0.731-1.097c-7.233-7.226-17.058-11.256-27.282-11.192-10.246-0.068-20.095 3.961-27.355 11.192-0.293 0.366-0.366 0.731-0.658 1.024l-161.938 161.938c-9.695 9.708-13.474 23.85-9.914 37.1s13.918 23.594 27.173 27.136c13.255 3.542 27.392-0.256 37.087-9.964l135.534-135.534 316.709 316.635c15.007 14.987 39.322 14.97 54.309-0.037s14.97-39.322-0.037-54.309v0z" />
<glyph unicode="&#xe907;" glyph-name="checkbox-on" d="M224 864h576c70.692 0 128-57.308 128-128v-576c0-70.692-57.308-128-128-128h-576c-70.692 0-128 57.308-128 128v576c0 70.692 57.308 128 128 128z" />
<glyph unicode="&#xe908;" glyph-name="search-white" d="M719.299 298.048c57.647 70.443 92.107 160.515 91.607 258.693-1.143 224.995-183.976 405.138-408.994 403.245-221.221-1.905-400.246-181.036-401.9-402.352-1.643-225.125 178.524-407.554 403.805-408.435 97.94-0.381 187.773 33.948 258.097 91.345v0.131l292.938-292.771c15.843-15.831 41.435-15.831 57.266 0 15.843 15.831 15.843 41.423 0 57.266l-292.819 292.879zM405.458 230.402c-179.155 0-324.363 145.183-324.363 324.315s145.195 324.315 324.363 324.315c179.167 0 324.363-145.183 324.363-324.315s-145.207-324.315-324.363-324.315v0z" />
<glyph unicode="&#xe909;" glyph-name="bag" d="M937.289 713.141c0 18.647-18.882 32.623-37.763 32.623h-155.717v13.913c0 111.655-99.106 200.056-217.091 200.056s-217.091-88.403-217.091-200.056v-13.944h-155.749c-18.882 0-33.035-13.945-37.763-32.56l-47.188-739.68c0-9.307 4.728-18.614 9.425-27.922 4.76-4.669 14.185-9.307 23.61-9.307h849.512c9.425 0 18.85 4.637 28.307 9.276 4.697 9.338 9.425 18.645 9.425 27.953l-51.916 739.647zM380.393 759.709c0 69.788 66.071 130.269 146.293 130.269 80.254 0 146.293-55.811 146.293-130.269v-13.944h-292.586v13.944zM139.724 6.055l47.188 669.891h122.714v-111.622h70.767v111.622h292.586v-111.622h70.828v111.622h122.683l42.491-669.891h-769.257z" />
<glyph unicode="&#xe90a;" glyph-name="email" d="M831.636 746.667h-639.688c-58.852-0.071-106.544-47.786-106.615-106.667v-426.667c0-58.837 47.806-106.667 106.615-106.667h639.688c58.809 0 106.615 47.829 106.615 106.667v426.667c0 58.837-47.806 106.667-106.615 106.667zM831.636 693.333c5.203 0 9.936-1.536 14.67-2.987l-315.366-312.192c-10.713-10.373-27.708-10.411-38.467-0.085l-317.157 311.893c5.331 1.749 10.747 3.371 16.632 3.371h639.688zM884.943 213.333c0-29.44-23.882-53.333-53.307-53.333h-639.688c-29.383 0-53.307 23.893-53.307 53.333v426.667c0 3.371 1.279 6.229 1.919 9.387l314.556-309.333c15.651-15.36 36.121-23.083 56.634-23.083 20.555 0 41.068 7.765 56.719 23.253l314.257 311.083c0.768-3.712 2.218-7.296 2.218-11.307v-426.667z" />
<glyph unicode="&#xe90b;" glyph-name="eye" d="M1017.49 447.118c-9.148 12.514-227.114 306.412-505.496 306.412s-496.358-293.898-505.496-306.4c-8.664-11.872-8.664-27.974 0-39.846 9.138-12.514 227.114-306.412 505.496-306.412s496.348 293.9 505.496 306.402c8.676 11.87 8.676 27.984 0 39.844zM511.994 168.388c-205.058 0-382.66 195.066-435.234 258.836 52.506 63.826 229.736 258.79 435.234 258.79 205.048 0 382.638-195.032 435.234-258.836-52.506-63.824-229.736-258.79-435.234-258.79zM511.994 629.75c-111.684 0-202.55-90.866-202.55-202.55s90.866-202.55 202.55-202.55c111.684 0 202.55 90.866 202.55 202.55s-90.866 202.55-202.55 202.55zM511.994 292.168c-74.46 0-135.032 60.574-135.032 135.032s60.574 135.032 135.032 135.032c74.458 0 135.032-60.574 135.032-135.032s-60.572-135.032-135.032-135.032z" />
<glyph unicode="&#xe90c;" glyph-name="location" d="M512.089 620.691c43.724-0.066 81.326-32.283 89.844-76.976s-14.416-89.439-54.796-106.914c-40.381-17.475-86.984-2.82-111.35 35.014s-19.723 88.332 11.094 120.656c17.253 18.096 40.73 28.256 65.209 28.219v0zM512.089 678.283c-70.386-0.113-130.896-52.019-144.531-123.981s23.403-143.941 88.466-171.923c65.063-27.983 140.033-4.177 179.068 56.861s31.265 142.31-18.558 194.121c-27.647 28.931-65.266 45.11-104.445 44.922v0zM765.188 796.917c-66.326 71.505-157.668 111.883-253.099 111.883s-186.773-40.378-253.099-111.883c-139.595-150.459-139.595-389.161 0-539.619l253.099-270.097 253.099 270.097c139.595 150.459 139.595 389.161 0 539.619zM727.058 295.307l-214.969-230.36-214.969 230.36c-118.687 127.553-118.687 330.289 0 457.841 56.409 60.589 133.961 94.784 214.969 94.784s158.56-34.195 214.969-94.784c118.687-127.553 118.687-330.289 0-457.841v0z" />
<glyph unicode="&#xe90d;" glyph-name="phone" d="M780.218 356.21c-38.586 27.431-72.72 43.043-101.759 43.043-20.028 0-39.65-12.453-49.663-24.36-19.026-21.831-31.042-34.153-44.060-34.153-1.001 0-2.003 0-3.004 0-69.369 5.341-112.153 62.929-142.195 106.588-31.042 45.644-38.85 68.506-33.045 75.621 7.873 9.65 46.131 47.494 50.706 73.467 6.805 38.628-5.652 78.632-33.538 117.226-33.001 45.675-78.489 117.938-139.352 117.938-21.029 0-54.579-18.864-73.147-36.396-40.891-38.61-67.028-76.556-78.043-122.201-11.015-47.629-3.004-100.217 23.032-160.745 25.034-58.544 101.138-166.809 198.271-261.074 83.113-81.367 209.286-181.312 338.462-186.654 4.005 0 8.011 0 11.015 0 85.116 0 137.187 52.699 155.212 74.529 23.032 26.791 36.539 55.36 36.889 77.891 0.66 43.992-43.894 88.175-115.783 139.28zM776.127 146.816c-18.086-12.476-42.326-22.868-84.368-23.978-21.083-0.556-79.952 13.136-102.701 25.689-92.802 50.153-123.248 74.805-201.888 149.162-83.277 78.741-134.235 155.057-163.519 204.486-28.461 48.038-42.377 91.006-32.509 149.811 6.043 36.007 48.949 106.693 89.269 114.108 37.183 6.839 79.59-60.907 101.452-97.747 34.676-58.433-1.401-81.8-12.61-98.169-23.202-33.881-32.375-46.14-4.52-102.74 18.56-37.477 52.458-81.531 82.576-112.644 56.971-58.853 114.746-72.019 148.509-71.51 31.871 0.481 42.319 14.823 58.426 33.304 31.816 44.312 95.041-7.157 121.127-29.051 19.195-16.111 65.871-45.026 59.801-75.721-3.135-15.857-34.437-46.997-59.045-65z" />
<glyph unicode="&#xe90e;" glyph-name="save-active" d="M713.558 795.598c51.606 0 100.52-22.507 137.616-63.17 18.548-20.406 33.207-44.264 43.529-70.972 10.77-27.909 16.155-57.468 16.155-88.078 0-75.924-34.703-130.391-65.368-178.406-37.097-58.368-105.606-133.392-197.898-217.269-55.346-50.266-106.353-91.979-128.791-109.835-4.039-3.151-9.723-3.301-13.911 0-21.241 16.805-71.351 57.318-128.941 109.385-92.442 83.877-160.802 159.050-197.749 217.269v0.3c-30.665 48.015-65.368 102.482-65.368 178.557 0 30.61 5.385 60.169 16.155 88.078 10.321 26.708 24.98 50.566 43.529 70.972 37.097 40.813 86.010 63.17 137.616 63.17 29.019 0 57.29-7.052 83.766-21.157 26.327-13.954 49.961-34.511 68.359-59.569l42.781-58.218c3.291-4.501 9.872-4.501 13.163 0l43.080 58.068c38.144 51.316 93.639 80.876 152.275 80.876v0zM713.558 857.268c-79.279 0-152.874-40.063-201.638-105.934-48.465 65.871-122.508 105.934-201.787 105.934-142.852 0-258.928-127.54-258.928-284.040 0-93.33 41.434-159.050 75.091-211.867 97.229-153.349 341.947-343.459 352.417-351.411 10.022-7.953 21.54-18.006 33.058-18.006s23.185 10.053 33.058 18.006c10.471 7.953 254.74 198.663 352.417 351.411 33.656 52.667 75.091 118.538 75.091 211.867 0.149 156.5-115.927 284.040-258.779 284.040z" />
<glyph unicode="&#xe90f;" glyph-name="Save---Inactive" d="M713.558 795.598c51.606 0 100.52-22.507 137.616-63.17 18.548-20.406 33.207-44.264 43.529-70.972 10.77-27.909 16.155-57.468 16.155-88.078 0-75.924-34.703-130.391-65.368-178.406-37.097-58.368-105.606-133.392-197.898-217.269-55.346-50.266-106.353-91.979-128.791-109.835-4.039-3.151-9.723-3.301-13.911 0-21.241 16.805-71.351 57.318-128.941 109.385-92.442 83.877-160.802 159.050-197.749 217.269v0.3c-30.665 48.015-65.368 102.482-65.368 178.557 0 30.61 5.385 60.169 16.155 88.078 10.321 26.708 24.98 50.566 43.529 70.972 37.097 40.813 86.010 63.17 137.616 63.17 29.019 0 57.29-7.052 83.766-21.157 26.327-13.954 49.961-34.511 68.359-59.569l42.781-58.218c3.291-4.501 9.872-4.501 13.163 0l43.080 58.068c38.144 51.316 93.639 80.876 152.275 80.876v0zM713.558 857.268c-79.279 0-152.874-40.063-201.638-105.934-48.465 65.871-122.508 105.934-201.787 105.934-142.852 0-258.928-127.54-258.928-284.040 0-93.33 41.434-159.050 75.091-211.867 97.229-153.349 341.947-343.459 352.417-351.411 10.022-7.953 21.54-18.006 33.058-18.006s23.185 10.053 33.058 18.006c10.471 7.953 254.74 198.663 352.417 351.411 33.656 52.667 75.091 118.538 75.091 211.867 0.149 156.5-115.927 284.040-258.779 284.040z" />
<glyph unicode="&#xe910;" glyph-name="action-delete" d="M256 149.333c0-46.933 38.4-85.333 85.333-85.333h341.333c46.933 0 85.333 38.4 85.333 85.333v512h-512v-512zM810.667 789.333h-149.333l-42.667 42.667h-213.333l-42.667-42.667h-149.333v-85.333h597.333v85.333z" />
<glyph unicode="&#xe911;" glyph-name="inbox" d="M910.222 960h-797.013c-63.147 0-112.64-50.631-112.64-113.778l-0.569-796.444c0-62.578 50.062-113.778 113.209-113.778h797.013c62.578 0 113.778 51.2 113.778 113.778v796.444c0 63.147-51.2 113.778-113.778 113.778zM938.667 277.333h-277.333c0-92.619-74.903-170.667-170.377-170.667s-170.956 78.047-170.956 170.667h-234.667v597.333l853.333 3.282v-600.615z" />
<glyph unicode="&#xe912;" glyph-name="income" d="M512 960c282.77 0 512-229.23 512-512s-229.23-512-512-512c-282.77 0-512 229.23-512 512s229.23 512 512 512zM512 874.667c-235.641 0-426.667-191.025-426.667-426.667 0-15.597 0.837-30.998 2.468-46.161l143.025 124.241 170.667-170.667 208.213 208.213-97.707 97.707h256v-256l-97.707 97.707-268.8-268.373-170.667 170.667-121.809-97.865c58.092-166.599 216.578-286.135 402.982-286.135 235.641 0 426.667 191.025 426.667 426.667s-191.025 426.667-426.667 426.667z" />
<glyph unicode="&#xe915;" glyph-name="account" d="M77.611 4.267c-27.456-0.056-50.596 7.388-66.548 31.3-7.12 10.671-11.174 22.371-11.063 35.283 1.249 132.512 90.719 242.548 219.189 269.546 6.672 1.402 13.477 2.147 20.197 3.334 17.517 3.098 31.147 0.544 45.295-14.151 29.576-30.723 68.898-45.468 109.755-54.369 90.74-19.77 181.051-19.371 269.974 10.243 33.588 11.191 63.888 28.374 87.448 55.806 2.928 3.413 5.586 4.526 10.198 4.316 132.098-5.956 239.718-103.224 259.106-234.736 1.766-11.991 2.375-24.199 2.796-36.332 1.227-35.253-24.502-65.155-59.344-69.181-6.369-0.736-12.833-0.878-19.251-0.88-144.422-0.045-288.847-0.034-433.273-0.034-144.827 0-289.655 0.163-434.48-0.145zM782.861 609.531c-3.98-93.43-45.035-185.237-142.568-244.807-94.23-57.558-214.944-42.272-295.371 34.581-127.298 121.647-128.441 331.983-2.469 454.877 102.63 100.125 264.392 94.134 360.169-13.341 52.981-59.454 80.24-132.016 80.24-231.309z" />
<glyph unicode="&#xe916;" glyph-name="arrow-down" d="M512 192l512 512h-1024z" />
<glyph unicode="&#xe917;" glyph-name="Heart" d="M738.163 925.663c-89.863 0-170.098-45.683-224.658-120.733-54.56 75.050-138.004 120.733-224.658 120.733-160.47 0-288.846-143.575-288.846-319.78 0-104.418 44.932-179.468 83.444-238.203 109.12-176.205 381.919-391.567 394.757-401.356 9.628-9.789 22.466-13.052 35.303-13.052s25.675 3.263 35.303 13.052c12.838 9.789 282.427 225.151 391.547 398.093 38.513 58.735 83.444 133.785 83.444 238.203 3.209 176.205-125.167 323.043-285.637 323.043z" />
<glyph unicode="&#xe918;" glyph-name="cart" d="M307.2 140.8c-56.32 0-102.4-46.080-102.4-102.4s46.080-102.4 102.4-102.4c56.32 0 102.4 46.080 102.4 102.4s-46.080 102.4-102.4 102.4zM0 960v-102.4h102.4l184.32-389.12-71.68-122.88c-5.12-15.36-10.24-35.84-10.24-51.2 0-56.32 46.080-102.4 102.4-102.4h614.4v102.4h-593.92c-5.12 0-10.24 5.12-10.24 10.24v5.122l46.080 87.040h378.88c40.96 0 71.68 20.48 87.040 51.2l184.32 332.798c10.24 10.24 10.24 15.36 10.24 25.6 0 30.72-20.48 51.2-51.2 51.2h-757.76l-46.080 102.4h-168.96zM819.2 140.8c-56.32 0-102.4-46.080-102.4-102.4s46.080-102.4 102.4-102.4c56.32 0 102.4 46.080 102.4 102.4s-46.080 102.4-102.4 102.4z" />
<glyph unicode="&#xe919;" glyph-name="Arrow-down-outline-white" d="M512 328.117l341.74 292.92c10.735 9.201 26.896 7.958 36.097-2.777s7.958-26.896-2.777-36.097l-358.4-307.2c-9.587-8.217-23.734-8.217-33.321 0l-358.4 307.2c-10.735 9.201-11.978 25.362-2.777 36.097s25.362 11.978 36.097 2.777l341.739-292.92z" />
<glyph unicode="&#xe91a;" glyph-name="arrow-left" d="M392.117 448l292.92-341.74c9.201-10.735 7.958-26.896-2.777-36.097s-26.896-7.958-36.097 2.777l-307.2 358.4c-8.217 9.587-8.217 23.734 0 33.321l307.2 358.4c9.201 10.735 25.362 11.978 36.097 2.777s11.978-25.362 2.777-36.097l-292.92-341.739z" />
<glyph unicode="&#xe91b;" glyph-name="Feature-Coin" d="M1024 448c0-282.77-229.23-512-512-512s-512 229.23-512 512c0 282.77 229.23 512 512 512s512-229.23 512-512z" />
<glyph unicode="&#xe91c;" glyph-name="Grid-View" d="M153.6 857.6h256c28.277 0 51.2-22.923 51.2-51.2v-256c0-28.277-22.923-51.2-51.2-51.2h-256c-28.277 0-51.2 22.923-51.2 51.2v256c0 28.277 22.923 51.2 51.2 51.2zM153.6 396.8h256c28.277 0 51.2-22.923 51.2-51.2v-256c0-28.277-22.923-51.2-51.2-51.2h-256c-28.277 0-51.2 22.923-51.2 51.2v256c0 28.277 22.923 51.2 51.2 51.2zM614.4 857.6h256c28.277 0 51.2-22.923 51.2-51.2v-256c0-28.277-22.923-51.2-51.2-51.2h-256c-28.277 0-51.2 22.923-51.2 51.2v256c0 28.277 22.923 51.2 51.2 51.2zM614.4 396.8h256c28.277 0 51.2-22.923 51.2-51.2v-256c0-28.277-22.923-51.2-51.2-51.2h-256c-28.277 0-51.2 22.923-51.2 51.2v256c0 28.277 22.923 51.2 51.2 51.2z" />
<glyph unicode="&#xe91d;" glyph-name="Grid-View-gray" d="M153.6 857.6h256c28.277 0 51.2-22.923 51.2-51.2v-256c0-28.277-22.923-51.2-51.2-51.2h-256c-28.277 0-51.2 22.923-51.2 51.2v256c0 28.277 22.923 51.2 51.2 51.2zM153.6 396.8h256c28.277 0 51.2-22.923 51.2-51.2v-256c0-28.277-22.923-51.2-51.2-51.2h-256c-28.277 0-51.2 22.923-51.2 51.2v256c0 28.277 22.923 51.2 51.2 51.2zM614.4 857.6h256c28.277 0 51.2-22.923 51.2-51.2v-256c0-28.277-22.923-51.2-51.2-51.2h-256c-28.277 0-51.2 22.923-51.2 51.2v256c0 28.277 22.923 51.2 51.2 51.2zM614.4 396.8h256c28.277 0 51.2-22.923 51.2-51.2v-256c0-28.277-22.923-51.2-51.2-51.2h-256c-28.277 0-51.2 22.923-51.2 51.2v256c0 28.277 22.923 51.2 51.2 51.2z" />
<glyph unicode="&#xe91e;" glyph-name="List-View-Blue" d="M153.6 755.2h716.8c28.277 0 51.2-22.923 51.2-51.2s-22.923-51.2-51.2-51.2h-716.8c-28.277 0-51.2 22.923-51.2 51.2s22.923 51.2 51.2 51.2zM153.6 499.2h716.8c28.277 0 51.2-22.923 51.2-51.2s-22.923-51.2-51.2-51.2h-716.8c-28.277 0-51.2 22.923-51.2 51.2s22.923 51.2 51.2 51.2zM153.6 243.2h716.8c28.277 0 51.2-22.923 51.2-51.2s-22.923-51.2-51.2-51.2h-716.8c-28.277 0-51.2 22.923-51.2 51.2s22.923 51.2 51.2 51.2z" />
<glyph unicode="&#xe91f;" glyph-name="List-View-Grey" d="M153.6 755.2h716.8c28.277 0 51.2-22.923 51.2-51.2s-22.923-51.2-51.2-51.2h-716.8c-28.277 0-51.2 22.923-51.2 51.2s22.923 51.2 51.2 51.2zM153.6 499.2h716.8c28.277 0 51.2-22.923 51.2-51.2s-22.923-51.2-51.2-51.2h-716.8c-28.277 0-51.2 22.923-51.2 51.2s22.923 51.2 51.2 51.2zM153.6 243.2h716.8c28.277 0 51.2-22.923 51.2-51.2s-22.923-51.2-51.2-51.2h-716.8c-28.277 0-51.2 22.923-51.2 51.2s22.923 51.2 51.2 51.2z" />
<glyph unicode="&#xe920;" glyph-name="Sort-Arrow-down" d="M512 192l512 512h-1024z" />
<glyph unicode="&#xe921;" glyph-name="Sort-Arrow-up" d="M512 704l512-512h-1024z" />
<glyph unicode="&#xe922;" glyph-name="Sidebar-Clear" d="M284.173 763.231l253.427-253.427 253.427 253.427 36.204-36.204-253.463-253.463 253.463-253.391-36.204-36.204-253.463 253.391-253.391-253.391-36.204 36.204 253.427 253.427-253.427 253.427 36.204 36.204z" />
<glyph unicode="&#xe923;" glyph-name="Sidebar-Fold" d="M512 567.883l341.74-292.92c10.735-9.201 26.896-7.958 36.097 2.777s7.958 26.896-2.777 36.097l-358.4 307.2c-9.587 8.217-23.734 8.217-33.321 0l-358.4-307.2c-10.735-9.201-11.978-25.362-2.777-36.097s25.362-11.978 36.097-2.777l341.739 292.92z" />
<glyph unicode="&#xe924;" glyph-name="Sidebar-Unfold" d="M512 328.117l341.74 292.92c10.735 9.201 26.896 7.958 36.097-2.777s7.958-26.896-2.777-36.097l-358.4-307.2c-9.587-8.217-23.734-8.217-33.321 0l-358.4 307.2c-10.735 9.201-11.978 25.362-2.777 36.097s25.362 11.978 36.097 2.777l341.739-292.92z" />
<glyph unicode="&#xe925;" glyph-name="Refresh" d="M864.192 658.057c-13.816 4.912-28.984-2.233-33.889-15.892l-20.525-56.923c-24.025 53.613-61.971 100.738-110.286 136.199-153.616 112.689-372.412 81.903-487.578-68.664-55.74-72.867-79.234-162.677-66.161-252.855 13.126-90.546 61.494-170.558 136.194-225.326 62.502-45.811 135.743-67.929 208.375-67.929 106.097 0 210.947 47.151 279.256 136.488 30.23 39.507 50.94 83.795 61.494 131.681 3.129 14.158-5.913 28.159-20.233 31.259-14.266 3.047-28.427-5.831-31.556-20.042-8.936-40.374-26.411-77.779-51.974-111.192-97.691-127.662-283.34-153.694-413.832-58.052-63.218 46.363-104.134 114.029-115.245 190.574-11.058 76.177 8.83 152.065 55.925 213.663 97.664 127.715 283.234 153.851 413.779 58.157 47.254-34.674 82.735-82.586 101.907-136.777l-91.141 35.252c-13.603 5.227-29.010-1.392-34.34-14.92s1.432-28.737 15.062-34.017l134.126-51.879c3.156-1.208 6.417-1.812 9.626-1.812 0.451 0 0.849 0.158 1.299 0.184 1.008-0.105 2.015-0.525 3.023-0.525 10.872 0 21.108 6.698 24.953 17.442l47.758 132.312c4.959 13.686-2.227 28.737-16.017 33.597z" />
<glyph unicode="&#xe926;" glyph-name="Password" d="M1017.49 447.118c-9.148 12.514-227.114 306.412-505.496 306.412s-496.358-293.898-505.496-306.4c-8.664-11.872-8.664-27.974 0-39.846 9.138-12.514 227.114-306.412 505.496-306.412s496.348 293.9 505.496 306.402c8.676 11.87 8.676 27.984 0 39.844zM511.994 168.388c-205.058 0-382.66 195.066-435.234 258.836 52.506 63.826 229.736 258.79 435.234 258.79 205.048 0 382.638-195.032 435.234-258.836-52.506-63.824-229.736-258.79-435.234-258.79zM511.994 629.75c-111.684 0-202.55-90.866-202.55-202.55s90.866-202.55 202.55-202.55c111.684 0 202.55 90.866 202.55 202.55s-90.866 202.55-202.55 202.55zM511.994 292.168c-74.46 0-135.032 60.574-135.032 135.032s60.574 135.032 135.032 135.032c74.458 0 135.032-60.574 135.032-135.032s-60.572-135.032-135.032-135.032z" />
<glyph unicode="&#xe927;" glyph-name="Complete" d="M512 960c282.77 0 512-229.23 512-512s-229.23-512-512-512c-282.77 0-512 229.23-512 512s229.23 512 512 512zM757.813 604.725c-13.761 12.9-35.393 12.9-49.154 0v0l-270.396-256.344-122.902 116.532c-13.785 12.872-35.401 12.872-49.186 0-6.496-6.070-10.175-14.498-10.175-23.313s3.678-17.242 10.175-23.313v0l147.495-139.813c13.592-12.899 35.594-12.899 49.154 0v0l294.99 279.657c6.503 6.060 10.187 14.485 10.187 23.297s-3.684 17.237-10.187 23.297z" />
<glyph unicode="&#xe928;" glyph-name="product-combo1" d="M853.333 960c94.257 0 170.667-76.41 170.667-170.667v-682.667c0-94.257-76.41-170.667-170.667-170.667h-682.667c-94.257 0-170.667 76.41-170.667 170.667v682.667c0 94.257 76.41 170.667 170.667 170.667h682.667zM514.977 789.333c-60.527 0-113.529-13.073-159.008-39.218s-80.62-63.539-105.426-112.182c-24.806-48.643-37.209-105.645-37.209-171.009v0-38.306c0-65.972 12.072-123.126 36.217-171.465s58.873-85.504 104.186-111.498c45.313-25.993 99.059-38.99 161.24-38.99 58.212 0 109.064 9.728 152.558 29.185s77.313 46.742 101.457 81.856c24.145 35.114 37.705 75.776 40.682 121.986v0h-160.744c-2.646-38.002-14.801-66.123-36.465-84.364s-54.16-27.361-97.488-27.361c-33.737 0-60.692 6.992-80.868 20.977s-34.811 35.57-43.907 64.755c-9.096 29.186-13.643 67.491-13.643 114.918v0 39.218c0 69.62 11.245 120.39 33.736 152.312s57.385 47.882 104.682 47.882c46.305 0 79.71-9.5 100.217-28.501s32.083-48.262 34.729-87.784v0h160.744c-4.631 46.515-18.77 87.632-42.419 123.354s-56.806 63.691-99.473 83.908c-42.667 20.217-93.933 30.326-153.798 30.326z" />
<glyph unicode="&#xe929;" glyph-name="product-part1" d="M853.333 960c94.257 0 170.667-76.41 170.667-170.667v-682.667c0-94.257-76.41-170.667-170.667-170.667h-682.667c-94.257 0-170.667 76.41-170.667 170.667v682.667c0 94.257 76.41 170.667 170.667 170.667h682.667zM519.542 789.333h-263.542v-667.333h148.958v229.167h114.583c52.25 0 97.472 8.785 135.667 26.354s67.528 42.472 88 74.708c20.472 32.236 30.708 69.743 30.708 112.521 0 43.389-10.236 82.041-30.708 115.958s-49.958 60.5-88.458 79.75c-38.5 19.25-83.569 28.875-135.208 28.875v0zM519.542 669.25c23.528 0 43.083-4.812 58.667-14.438s27.042-22.382 34.375-38.271c7.333-15.889 11-33.458 11-52.708 0-28.417-8.555-50.951-25.667-67.604s-43.236-24.979-78.375-24.979h-114.583v198h114.583z" />
<glyph unicode="&#xe92a;" glyph-name="search" d="M691.699 318.22c49.919 60.999 79.759 138.995 79.326 224.011-0.99 194.83-159.311 350.822-354.162 349.184-191.563-1.649-346.586-156.765-348.019-348.411-1.422-194.944 154.59-352.915 349.668-353.678 84.809-0.33 162.599 29.397 223.495 79.099v0.113l253.665-253.521c13.719-13.709 35.88-13.709 49.589 0 13.719 13.709 13.719 35.87 0 49.589l-253.562 253.613zM419.934 259.643c-155.137 0-280.877 125.719-280.877 280.835s125.73 280.835 280.877 280.835c155.147 0 280.876-125.719 280.876-280.835s-125.74-280.835-280.876-280.835v0z" />
<glyph unicode="&#xe92b;" glyph-name="Account-Triangle" d="M512 163.556l512 568.889h-1024z" />
<glyph unicode="&#xe92d;" glyph-name="Messages1x" d="M870.4 857.6h-716.8c-84.831 0-153.6-68.769-153.6-153.6v-512c0-84.831 68.769-153.6 153.6-153.6h716.8c84.831 0 153.6 68.769 153.6 153.6v512c0 84.831-68.769 153.6-153.6 153.6zM836.096 755.2l-324.096-243.2-324.096 243.2h648.192zM870.4 140.8h-716.8c-28.277 0-51.2 22.923-51.2 51.2v499.2l378.88-284.16c8.863-6.647 19.642-10.24 30.72-10.24s21.857 3.593 30.72 10.24l378.88 284.16v-499.2c0-28.277-22.923-51.2-51.2-51.2z" />
<glyph unicode="&#xe92e;" glyph-name="Notifications1x" d="M948.224 283.648l-92.16 92.672v228.352c2.535 175.342-124.647 325.689-297.984 352.256-98.419 12.961-197.652-17.088-272.347-82.471s-117.616-159.765-117.797-259.033v-239.104l-92.16-92.672c-23.667-24.061-30.627-59.954-17.67-91.118s43.313-51.541 77.062-51.73h172.032v-17.408c4.979-108.22 96.564-192.020 204.8-187.392 108.236-4.628 199.821 79.172 204.8 187.392v17.408h172.032c33.749 0.189 64.105 20.567 77.062 51.73s5.996 67.056-17.67 91.118zM614.4 123.392c-5.899-51.163-51.026-88.618-102.4-84.992-51.374-3.626-96.501 33.829-102.4 84.992v17.408h204.8v-17.408zM179.712 243.2l60.416 60.416c19.356 19.241 30.23 45.412 30.208 72.704v239.104c0.056 69.878 30.294 136.327 82.944 182.272 51.959 47.078 121.963 68.978 191.488 59.904 122.426-19.878 211.52-126.879 208.896-250.88v-230.4c-0.157-27.218 10.528-53.379 29.696-72.704l60.928-60.416h-664.576z" />
<glyph unicode="&#xe92f;" glyph-name="System-Notice1x" d="M460.8 294.4h102.4v-102.4h-102.4v102.4zM460.8 704h102.4v-307.2h-102.4v307.2zM511.488 960c-282.624 0-511.488-229.376-511.488-512s228.864-512 511.488-512c283.136 0 512.512 229.376 512.512 512s-229.376 512-512.512 512zM512 38.4c-226.304 0-409.6 183.296-409.6 409.6s183.296 409.6 409.6 409.6c226.304 0 409.6-183.296 409.6-409.6s-183.296-409.6-409.6-409.6z" />
<glyph unicode="&#xe930;" glyph-name="Off" d="M292.571 155.429l73.143-73.143 365.714 365.714-365.714 365.714-73.143-73.143 292.571-292.571z" />
<glyph unicode="&#xe931;" glyph-name="On" d="M219.429 667.429l-73.143-73.143 365.714-365.714 365.714 365.714-73.143 73.143-292.571-292.571z" />
<glyph unicode="&#xe932;" glyph-name="Checked" d="M860.444 896c54.756 0 99.556-44.8 99.556-99.556v0-696.889c0-54.756-44.8-99.556-99.556-99.556v0h-696.889c-54.756 0-99.556 44.8-99.556 99.556v0 696.889c0 54.756 44.8 99.556 99.556 99.556v0zM818.651 768l-416.366-419.562-196.937 197.896-77.349-77.942 274.286-276.392 493.714 497.505-77.349 78.495z" />
<glyph unicode="&#xe933;" glyph-name="Inactive" d="M832 128h-640v640h640v-640zM860.444 896h-696.889c-54.756 0-99.556-44.8-99.556-99.556v-696.889c0-54.756 44.8-99.556 99.556-99.556h696.889c54.756 0 99.556 44.8 99.556 99.556v696.889c0 54.756-44.8 99.556-99.556 99.556z" />
<glyph unicode="&#xe934;" glyph-name="Selected-Rows-Action" d="M832 320l-281.6-256-66.645 64.151 156.245 127.849h-512v576h128v-448h384l-156.245 157.967 66.645 64.151z" />
<glyph unicode="&#xe935;" glyph-name="Down" d="M853.333 448l-60.16 60.16-217.173-220.16v480h-128v-480l-216.747 220.587-60.587-60.587 341.333-341.333z" />
<glyph unicode="&#xe936;" glyph-name="Up" d="M853.333 426.667l-60.16-60.16-217.173 220.16v-480h-128v480l-216.747-220.587-60.587 60.587 341.333 341.333z" />
<glyph unicode="&#xe937;" glyph-name="Brand-Center1x" d="M665.6 755.2l272.833-299.571c113.889-117.332 113.889-309.556 1.199-426.888v0l-3.596-3.745c-101.9-106.098-258.947-117.332-372.835-33.702 53.947 62.411 102.4 135.186 102.4 226.305v0 537.6zM460.8 908.8c62.171 0 102.4-40.229 102.4-102.4v0-537.6c0-163.352-128-281.6-263.314-292.571v0h-4.876c-163.352 0-295.010 131.657-295.010 295.010v0 525.41c0 62.171 49.981 112.152 112.152 112.152v0zM281.6 806.4c-56.248 0-102.4-46.152-102.4-102.4s46.152-102.4 102.4-102.4c56.248 0 100.958 46.152 102.4 102.4 0 56.248-46.152 102.4-102.4 102.4z" />
<glyph unicode="&#xe938;" glyph-name="Buyer-Management1x" d="M486.4 716.8c0 22.293-18.24 40.533-40.533 40.533h-209.963l26.752 128.896 0.811 9.323c0 12.565-5.269 23.915-13.376 32.427l-32.021 32.021-200.235-200.235c-10.944-10.944-17.835-26.347-17.835-42.965v-263.467c0-33.643 27.157-60.8 60.8-60.8h273.6c25.131 0 46.613 15.403 55.936 36.885l91.605 214.421c2.837 6.891 4.459 14.592 4.459 22.293v50.667zM963.2 503.467h-273.6c-25.131 0-46.613-15.403-55.936-36.885l-91.605-214.421c-2.837-6.891-4.459-14.592-4.459-22.293v-50.667c0-22.293 18.24-40.533 40.533-40.533h209.963l-26.752-128.896-0.811-9.728c0-12.565 5.269-23.915 13.376-32.427l32.021-31.616 200.235 200.235c10.944 10.944 17.835 26.347 17.835 42.965v263.467c0 33.643-27.157 60.8-60.8 60.8z" />
<glyph unicode="&#xe939;" glyph-name="Delicacy-Management1x" d="M256 704c-5.778-14.555-36.875-49.258-51.2-25.6s15.996 277.428 0 281.6c-13.704 3.556-117.302-0.249-127.568-0.77-3.199-41.722 12.128-106.486 20.771-142.376 8.117-34.089 28.554-86.952 44.789-117.059 43.977-81.31 79.741-126.968 145.014-177.793 29.652-22.995 64.644-47.57 105.001-57.415 67.993-16.587 42.393-16.587 67.993-16.587 0-51.2 0-384 0-409.6-25.6 0-153.6 0-204.8 0v-102.4c25.6 0 435.2 0 512 0v102.4c-51.2 0-153.6 0-204.8 0 0 51.2 0 358.4 0 409.6 7.21 3.983 38.987 8.622 48.967 11.466 18.765 5.31 24.257 7.207 41.351 14.366 75.778 31.766 135.465 87.095 182.736 151.859 30.369 41.722 58.206 95.202 75.73 147.592 13.227 39.494 40.157 134.98 34.427 186.042l-536.811 0.676c-10.935-12.185-137.843-216.080-153.6-256z" />
<glyph unicode="&#xe93a;" glyph-name="Marketing-Business1x" d="M819.2 960c56.554 0 102.4-45.846 102.4-102.4v-819.2c0-56.554-45.846-102.4-102.4-102.4h-563.2c-56.554 0-102.4 45.846-102.4 102.4v819.2c0 56.554 45.846 102.4 102.4 102.4h563.2zM537.6 192h-204.8c-42.415 0-76.8-34.385-76.8-76.8 0-39.92 30.458-72.727 69.404-76.448l7.396-0.352h204.8c42.415 0 76.8 34.385 76.8 76.8s-34.385 76.8-76.8 76.8zM742.4 192c-42.415 0-76.8-34.385-76.8-76.8s34.385-76.8 76.8-76.8c42.415 0 76.8 34.385 76.8 76.8s-34.385 76.8-76.8 76.8zM332.8 396.8c-42.415 0-76.8-34.385-76.8-76.8s34.385-76.8 76.8-76.8c42.415 0 76.8 34.385 76.8 76.8s-34.385 76.8-76.8 76.8zM742.4 396.8c-42.415 0-76.8-34.385-76.8-76.8s34.385-76.8 76.8-76.8c42.415 0 76.8 34.385 76.8 76.8s-34.385 76.8-76.8 76.8zM537.6 396.8c-42.415 0-76.8-34.385-76.8-76.8s34.385-76.8 76.8-76.8c42.415 0 76.8 34.385 76.8 76.8s-34.385 76.8-76.8 76.8zM332.8 601.6c-42.415 0-76.8-34.385-76.8-76.8s34.385-76.8 76.8-76.8c42.415 0 76.8 34.385 76.8 76.8s-34.385 76.8-76.8 76.8zM742.4 601.6c-42.415 0-76.8-34.385-76.8-76.8s34.385-76.8 76.8-76.8c42.415 0 76.8 34.385 76.8 76.8s-34.385 76.8-76.8 76.8zM537.6 601.6c-42.415 0-76.8-34.385-76.8-76.8s34.385-76.8 76.8-76.8c42.415 0 76.8 34.385 76.8 76.8s-34.385 76.8-76.8 76.8zM716.8 857.6h-358.4c-56.554 0-102.4-45.846-102.4-102.4 0-53.983 41.773-98.21 94.758-102.119l7.642-0.281h358.4c56.554 0 102.4 45.846 102.4 102.4s-45.846 102.4-102.4 102.4z" />
<glyph unicode="&#xe93b;" glyph-name="Order-History1x" d="M537.6 857.6c-218.112 0-405.943-171.947-405.943-384h-131.657l204.8-179.2 204.8 179.2h-153.6c0 165.12 111.762 281.6 281.6 281.6s281.6-116.48 281.6-281.6c0-165.12-111.762-281.6-281.6-281.6-84.699 0-172.471 16.64-227.767 70.827l-62.318-60.587c71.534-69.547 180.809-112.64 290.085-112.64 218.112 0 384 171.947 384 384s-165.888 384-384 384zM460.8 652.8v-203.714l153.6-154.686 76.8 76.8-128 128v153.6h-102.4z" />
<glyph unicode="&#xe93c;" glyph-name="Product-Information1x" d="M768 549.917c4.49 24.283 46.789 38.495 70.735 33.942 22.449-4.553 33.162-11.177 31.665-33.942v0-103.843c-10.476-54.637-66.087-89.871-121.462-89.871v0l-32.138-13.972 105.472-383.666c2.993-13.153-6.564-20.675-28.672-22.564-17.067 0-27.464 1.956-31.193 5.869v0l-122.407 400.361h-332.8l-82.078-400.361c5.278-5.869-6.853-5.869-20.322-5.869-20.953 0-45.529 2.834-39.542 22.564v0l90.742 383.666h-25.6c-55.375 0-117.524 49.206-128 103.843v0 103.843c-4.49 24.283 19.456 29.389 43.402 33.942s46.395-10.624 50.885-34.907v0l14.966-81.956c1.497-13.659 30.878-18.996 44.347-18.996v0h460.8c13.47 0 53.090 5.336 56.084 18.996v0zM270.021 943.537c152.655-28.436 299.323-31.429 441.502-2.993 42.535 8.507 85.071-17.91 95.793-60.162l1.487-7.185 29.932-150.843h-8.98c-32.783 0-100.146-55.085-111.658-90.066l-1.297-5.087v-128h-460.8l-6.774 164.785c-5.634 32.397-55.157 55.515-90.909 58.122l-6.528 0.246h-8.98l31.429 153.836c7.483 44.898 50.885 76.327 95.783 67.348zM486.398 857.6c-8.258 0-15.558-5.54-18.123-13.757l-21.48-68.83h-69.31c-8.258 0-15.589-5.562-18.164-13.757-2.523-8.206 0.261-17.175 6.924-22.225l56.141-42.567-21.439-68.83c-2.523-8.163 0.229-17.175 6.924-22.225 6.663-5.072 15.714-5.072 22.419 0l56.12 42.556 56.13-42.556c3.347-2.558 7.289-3.809 11.199-3.809 3.9 0 7.852 1.252 11.199 3.809 6.705 5.050 9.458 14.062 6.934 22.225l-21.449 68.83 56.141 42.567c6.653 5.050 9.437 14.029 6.924 22.225-2.586 8.196-9.916 13.757-18.196 13.757h-69.363l-21.407 68.83c-2.555 8.217-9.854 13.757-18.123 13.757z" />
<glyph unicode="&#xe93d;" glyph-name="Product-Management1x" d="M153.6 243.2c56.554 0 102.4-45.846 102.4-102.4s-45.846-102.4-102.4-102.4c-56.554 0-102.4 45.846-102.4 102.4s45.846 102.4 102.4 102.4zM972.8 192c30.996 0 51.202-20.142 51.202-51.2 0-28.811-17.422-48.263-44.729-50.895l-6.474-0.305h-512c-30.996 0-51.2 20.173-51.2 51.2 0 28.839 17.403 48.267 44.723 50.895l6.477 0.305h512zM153.6 550.4c56.554 0 102.4-45.846 102.4-102.4s-45.846-102.4-102.4-102.4c-56.554 0-102.4 45.846-102.4 102.4s45.846 102.4 102.4 102.4zM968.133 499.2c30.837 0 55.867-22.897 55.867-51.191 0-26.416-21.804-48.131-49.782-50.909l-6.084-0.3h-502.677c-30.837 0-55.856 22.897-55.856 51.209 0 26.399 21.777 48.113 49.769 50.89l6.088 0.3h502.677zM127.998 908.8c6.891 0 13.108-3.847 16.467-9.885l1.655-3.872 21.407-68.83h69.363c8.279 0 15.61-5.562 18.196-13.757 2.094-6.83 0.51-14.203-3.926-19.394l-2.997-2.831-56.141-42.567 21.449-68.83c2.523-8.163-0.229-17.175-6.934-22.225-3.347-2.558-7.299-3.809-11.199-3.809-2.607 0-5.228 0.556-7.677 1.685l-3.522 2.124-56.13 42.556-56.12-42.556c-6.705-5.072-15.756-5.072-22.419 0-5.579 4.208-8.42 11.168-7.752 18.095l0.828 4.13 21.439 68.83-56.141 42.567c-6.663 5.050-9.447 14.018-6.924 22.225 2.146 6.83 7.595 11.83 14.13 13.307l4.034 0.45h69.31l21.48 68.83c2.565 8.217 9.864 13.757 18.123 13.757zM968.133 806.4c30.826 0 55.867-22.913 55.867-51.205 0-26.405-21.804-48.118-49.782-50.895l-6.084-0.3h-502.677c-30.837 0-55.856 22.895-55.856 51.195 0 26.405 21.777 48.126 49.769 50.904l6.088 0.3h502.677z" />
<glyph unicode="&#xe93e;" glyph-name="Action---Add" d="M554.667 661.333h-85.333v-170.667h-170.667v-85.333h170.667v-170.667h85.333v170.667h170.667v85.333h-170.667v170.667zM512 874.667c-235.52 0-426.667-191.147-426.667-426.667s191.147-426.667 426.667-426.667c235.52 0 426.667 191.147 426.667 426.667s-191.147 426.667-426.667 426.667zM512 106.667c-188.16 0-341.333 153.173-341.333 341.333s153.173 341.333 341.333 341.333c188.16 0 341.333-153.173 341.333-341.333s-153.173-341.333-341.333-341.333z" />
<glyph unicode="&#xe93f;" glyph-name="Action---Approve" d="M42.667 21.333h170.667v512h-170.667v-512zM981.333 490.667c0 46.933-38.4 85.333-85.333 85.333h-269.227l40.533 194.987 1.28 13.653c0 17.493-7.253 33.707-18.773 45.227l-45.227 44.8-280.747-281.173c-15.787-15.36-25.173-36.693-25.173-60.16v-426.667c0-46.933 38.4-85.333 85.333-85.333h384c35.413 0 65.707 21.333 78.507 52.053l128.853 300.8c3.84 9.813 5.973 20.053 5.973 31.147v81.493l-0.427 0.427 0.427 3.413z" />
<glyph unicode="&#xe940;" glyph-name="Action---Cancel-Edits" d="M426.556 234.667l60.56 60.587-153.107 152.747c104.346 0 184.951 0 241.815 0 85.296 0 149.269-85.333 149.269-170.667 0-56.889 0-99.556 0-128h85.296c0.369 124.205 0.369 188.205 0 192-10.2 104.859-113.209 192-234.565 192-85.296 0-165.902 0-241.815 0l153.107 152.747-60.56 60.587-255.889-256 255.889-256z" />
<glyph unicode="&#xe941;" glyph-name="Action---Confirm-and-Agree" d="M372.066 275.392l-182.067 185.748-61.999-62.807 244.066-249 523.934 534.526-61.562 62.807z" />
<glyph unicode="&#xe942;" glyph-name="Action---Contact-Buyer" d="M853.333 789.333h-682.667c-46.933 0-84.907-38.4-84.907-85.333l-0.427-512c0-46.933 38.4-85.333 85.333-85.333h682.667c46.933 0 85.333 38.4 85.333 85.333v512c0 46.933-38.4 85.333-85.333 85.333zM853.333 618.667l-341.333-213.333-341.333 213.333v85.333l341.333-213.333 341.333 213.333v-85.333z" />
<glyph unicode="&#xe943;" glyph-name="Action---CSV-Export" d="M597.333 874.667l256-256v-512c0-46.933-38.4-85.333-85.333-85.333v0h-512.427c-46.933 0-84.907 38.4-84.907 85.333v0l0.427 682.667c0 46.933 37.973 85.333 84.907 85.333v0h341.333zM576 533.333h-94.17l-5.354-0.326c-28.678-3.439-58.646-33.557-58.646-63.674 0-32 55.163-64 64-64v0h42.667l5-2.667c10.889-6.222 16.333-12.444 16.333-18.667 0-7.111-7.111-14.222-21.333-21.333v0h-76.497v-42.667h94.17l5.927 0.326c31.348 3.439 58.073 33.557 58.073 63.674 0 32-30.17 64-64 64v0h-42.667l-5 2.667c-10.889 6.222-16.333 12.444-16.333 18.667 0 7.111 7.111 14.222 21.333 21.333v0h76.497v42.667zM405.333 533.333h-119.851l-29.482-58.964v-120.539l33.83-33.83h115.503v42.667h-97.83l-8.837 8.837v92.794l13.185 26.369h93.482v42.667zM725.841 537.961l-38.954-175.295h-8.441l-38.954 175.295-41.651-9.256 46.379-208.705h76.893l46.379 208.705-41.651 9.256z" />
<glyph unicode="&#xe944;" glyph-name="Action---Delete-Entry" d="M256 149.333c0-46.933 38.4-85.333 85.333-85.333h341.333c46.933 0 85.333 38.4 85.333 85.333v512h-512v-512zM810.667 789.333h-149.333l-42.667 42.667h-213.333l-42.667-42.667h-149.333v-85.333h597.333v85.333z" />
<glyph unicode="&#xe945;" glyph-name="Action---Download" d="M810.667 576h-170.667v256h-256v-256h-170.667l298.667-298.667 298.667 298.667zM213.333 192v-85.333h597.333v85.333h-597.333z" />
<glyph unicode="&#xe946;" glyph-name="Action---Drag-to-Reorder" d="M128 320h768v85.333h-768v-85.333zM128 149.333h768v85.333h-768v-85.333zM128 490.667h768v85.333h-768v-85.333zM128 746.667v-85.333h768v85.333h-768z" />
<glyph unicode="&#xe947;" glyph-name="Action---Edit" d="M213.333 282.453v-133.12h133.12l378.88 378.88-133.12 133.12-378.88-378.88zM843.093 645.547c14.080 14.080 14.080 36.267 0 50.347l-83.2 83.2c-14.080 14.080-36.267 14.080-50.347 0l-69.547-69.973 133.12-133.12 69.973 69.547z" />
<glyph unicode="&#xe948;" glyph-name="Action---More" d="M128 576c70.692 0 128-57.308 128-128s-57.308-128-128-128c-70.692 0-128 57.308-128 128s57.308 128 128 128zM512 576c70.692 0 128-57.308 128-128s-57.308-128-128-128c-70.692 0-128 57.308-128 128s57.308 128 128 128zM896 576c70.692 0 128-57.308 128-128s-57.308-128-128-128c-70.692 0-128 57.308-128 128s57.308 128 128 128z" />
<glyph unicode="&#xe949;" glyph-name="Action---Preview-on-Store" d="M597.333 874.667l256-256v-512c0-46.933-38.4-85.333-85.333-85.333v0h-512.427c-46.933 0-84.907 38.4-84.907 85.333v0l0.427 682.667c0 46.933 37.973 85.333 84.907 85.333v0h341.333zM511.996 575.981c-93.904 1.271-187.531-60.839-243.98-119.54-16.021-16.936-16.021-42.551 0-59.487 55.766-58.095 148.091-119.62 240.544-119.62h6.573c92.773 0 185.055 61.525 240.885 119.641 16 16.945 15.972 42.553-0.064 59.467-56.428 58.721-150.054 120.791-243.959 119.54zM511.996 519.48c54.219 0 98.172-41.558 98.172-92.823s-43.953-92.823-98.172-92.823c-54.219 0-98.172 41.558-98.172 92.823s43.953 92.823 98.172 92.823z" />
<glyph unicode="&#xe94a;" glyph-name="Action---Recycle" d="M938.667 832c46.933 0 85.333-38.4 85.333-85.333v0-597.333c0-46.933-38.4-85.333-85.333-85.333v0h-640c-29.44 0-52.48 15.36-67.84 37.973v0l-230.827 346.027 230.827 346.453c15.36 22.613 38.4 37.547 67.84 37.547v0zM454 337.85l-50.222-80.762c52.151-51.457 124.583-83.374 204.444-83.374 44.961 0 87.418 10.289 125.333 28.299l36.889-52.68 62.667 170.667-185.111 4.136 32.444-46.367c-22.394-8.746-46.65-13.497-72.222-13.497-62.582 0-118.424 28.774-154.222 73.578zM534.667 728.599c-116.758-30.148-204.515-130.497-213.556-252.082l-65.111-5.007 119.556-138.667 96.222 154.993-57.111-4.354c12.384 83.999 80.345 150.213 166.222 161.959l-46.222 83.156zM798 746.667l-182.222-32 88.889-159.129 24.667 50.503c45.256-35.093 74.444-89.276 74.444-150.204 0-25.37-5.079-49.675-14.222-71.837l96.444-2.177c6.518 23.566 10 48.429 10 74.014 0 97.015-50.088 182.415-126.222 233.143l28.222 57.687z" />
<glyph unicode="&#xe94b;" glyph-name="Action---Reject" d="M640 832h-384c-35.413 0-65.707-21.333-78.507-52.053l-128.853-300.8c-3.84-9.813-5.973-20.053-5.973-31.147v-81.493l0.427-0.427-0.427-3.413c0-46.933 38.4-85.333 85.333-85.333h269.227l-40.533-194.987-1.28-13.653c0-17.493 7.253-33.707 18.773-45.227l45.227-44.8 281.173 281.173c15.36 15.36 24.747 36.693 24.747 60.16v426.667c0 46.933-38.4 85.333-85.333 85.333zM810.667 832v-512h170.667v512h-170.667z" />
<glyph unicode="&#xe94c;" glyph-name="Action---Remove" d="M298.667 490.667v-85.333h426.667v85.333h-426.667zM512 874.667c-235.52 0-426.667-191.147-426.667-426.667s191.147-426.667 426.667-426.667c235.52 0 426.667 191.147 426.667 426.667s-191.147 426.667-426.667 426.667zM512 106.667c-188.16 0-341.333 153.173-341.333 341.333s153.173 341.333 341.333 341.333c188.16 0 341.333-153.173 341.333-341.333s-153.173-341.333-341.333-341.333z" />
<glyph unicode="&#xe94d;" glyph-name="Action---Send-Message" d="M85.76 64l895.573 384-895.573 384-0.427-298.667 640-85.333-640-85.333z" />
<glyph unicode="&#xe94e;" glyph-name="Action---Upload" d="M810.667 362.667h-170.667v-256h-256v256h-170.667l298.667 298.667 298.667-298.667zM213.333 746.667v85.333h597.333v-85.333h-597.333z" />
<glyph unicode="&#xe94f;" glyph-name="Action---View-Conversation" d="M853.333 874.667h-682.667c-46.933 0-84.907-38.4-84.907-85.333l-0.427-768 170.667 170.667h597.333c46.933 0 85.333 38.4 85.333 85.333v512c0 46.933-38.4 85.333-85.333 85.333zM256 576h512v-85.333h-512v85.333zM597.333 362.667h-341.333v85.333h341.333v-85.333zM768 618.667h-512v85.333h512v-85.333z" />
<glyph unicode="&#xe950;" glyph-name="Action---View-Table" d="M128 405.333h298.667v85.333h-298.667v-85.333zM128 234.667h298.667v85.333h-298.667v-85.333zM128 576h298.667v85.333h-298.667v-85.333zM554.667 405.333h341.333v85.333h-341.333v-85.333zM554.667 234.667h341.333v85.333h-341.333v-85.333zM554.667 661.333v-85.333h341.333v85.333h-341.333z" />
<glyph unicode="&#xe951;" glyph-name="Download" d="M512 960c282.77 0 512-229.23 512-512s-229.23-512-512-512c-282.77 0-512 229.23-512 512s229.23 512 512 512zM725.333 704h-426.667l213.333-341.333 213.333 341.333zM256 277.333v-85.333h512v85.333h-512z" />
</font>
</defs>
</svg>
