<svg t="1588126507044" class="icon" viewBox="0 0 1397 1024" version="1.1" xmlns="http://www.w3.org/2000/svg" p-id="4797" width="200" height="200"><path d="M589.840373 863.816656h-66.310993c-3.547502 0-6.685676 3.138175-6.685676 6.685676 0 3.547502 3.138175 6.685676 6.685676 6.685676h66.310993c3.547502 0 6.685676-3.138175 6.685676-6.685676-0.136442-3.547502-3.138175-6.685676-6.685676-6.685676z m405.643171 0H633.638374c-3.547502 0-6.685676 3.138175-6.685676 6.685676 0 3.547502 3.138175 6.685676 6.685676 6.685676h361.981613c3.547502 0 6.685676-3.138175 6.685676-6.685676-0.136442-3.547502-2.86529-6.685676-6.822119-6.685676z m0 0" p-id="4798" fill="#FA6400"></path><path d="M1010.628648 819.472885c5.594137 2.86529 12.416256 2.592405 17.737508-0.818654 5.321252-3.411059 8.459427-9.414524 8.186542-15.690873-0.272885-6.276349-3.956829-12.006929-9.550966-14.872219-5.594137-2.86529-12.416256-2.592405-17.737508 0.818654-5.321252 3.411059-8.459427 9.414524-8.186542 15.690873 0.409327 6.276349 3.956829 12.006929 9.550966 14.872219z m0 0" p-id="4799" fill="#FA6400"></path><path d="M1214.064224 469.225316c-14.190007 0-26.060493 11.461159-26.060493 26.060493 0 14.599334 11.461159 26.060493 26.060493 26.060493 14.190007 0 26.060493-11.461159 26.060493-26.060493 0.136442-14.599334-11.461159-26.060493-26.060493-26.060493z m0 38.476749c-7.095003 0-12.825583-5.73058-12.825583-12.825583s5.73058-12.825583 12.825583-12.825583 12.825583 5.73058 12.825583 12.825583c0 7.50433-5.73058 12.825583-12.825583 12.825583 0 0.409327 0 0.409327 0 0z m-58.806662 359.662092c-14.190007 0-26.060493 11.461159-26.060493 26.060493 0 14.190007 11.461159 26.060493 26.060493 26.060493 14.190007 0 26.060493-11.461159 26.060493-26.060493 0-14.462891-11.461159-26.060493-26.060493-26.060493z m0 39.022519c-7.095003 0-12.825583-5.73058-12.825583-12.825583s5.73058-12.825583 12.825583-12.825583 12.825583 5.73058 12.825583 12.825583-5.73058 12.825583-12.825583 12.825583zM843.759627 90.051965c-18.96549 0-34.110593 15.008661-34.110593 34.110593 0 18.96549 15.008661 34.110593 34.110593 34.110593 18.96549 0 34.110593-15.008661 34.110593-34.110593 0-18.692605-15.55443-34.110593-34.110593-34.110593z m0 54.849834c-11.461159 0-20.739241-9.278081-20.739241-20.739241 0-11.461159 9.278081-20.739241 20.739241-20.73924 11.461159 0 20.739241 9.278081 20.73924 20.73924 0 11.461159-9.278081 20.739241-20.73924 20.739241zM288.029847 265.243971c-18.96549 0-34.110593 15.417988-33.564824 34.110593 0 18.96549 15.417988 34.110593 34.110593 33.564823 18.556163 0 34.110593-15.55443 33.564824-34.110593 0-18.556163-15.55443-33.564823-34.110593-33.564823z m0 54.849833c-11.461159 0-20.739241-9.687408-20.329914-20.73924 0-11.461159 9.687408-20.739241 20.739241-20.329914 11.461159 0 20.329913 9.278081 20.329913 20.739241 0 11.051832-9.278081 20.329913-20.73924 20.329913z m0 0" p-id="4800" fill="#FA6400"></path><path d="M224.720586 916.074084c-23.468088 0-42.02425-18.96549-42.02425-42.024251 0-23.468088 18.96549-42.02425 42.02425-42.02425s42.02425 18.96549 42.024251 42.02425c0 23.468088-18.96549 42.02425-42.024251 42.024251z m0-70.813591c-15.963757 0-28.78934 12.825583-28.78934 28.78934 0 15.963757 12.825583 28.78934 28.78934 28.789341 15.963757 0 28.78934-12.825583 28.789341-28.789341 0-15.963757-12.825583-28.78934-28.789341-28.78934z m0 0" p-id="4801" fill="#FA6400"></path><path d="M446.43944 18.283278c0 6.276349 3.411059 12.143371 8.868755 15.281545 5.457695 3.138175 12.279813 3.138175 17.737508 0s8.868754-9.005197 8.868754-15.281545-3.411059-12.143371-8.868754-15.281546c-5.457695-3.138175-12.279813-3.138175-17.737508 0s-8.868754 9.005197-8.868755 15.281546z m0 0M386.814124 342.470353c5.594137 2.86529 12.416256 2.592405 17.737508-0.818654 5.321252-3.411059 8.459427-9.414524 8.186543-15.690873-0.272885-6.276349-3.956829-12.006929-9.550966-14.872218-5.594137-2.86529-12.279813-2.592405-17.737509 0.818654-5.321252 3.411059-8.459427 9.414524-8.186542 15.690873 0.272885 6.139907 3.956829 11.870486 9.550966 14.872218z m0 0" p-id="4802" fill="#FA6400"></path><path d="M587.111526 63.85503L614.536442 42.297135v38.067422l-27.424916-16.509527zM0 652.876749H26.060493s-8.459427 31.791073-12.825583 26.060493c-4.366156-5.73058-13.23491-26.060493-13.23491-26.060493z m68.630513-306.722452h13.78068v-19.511259l-13.78068 19.511259z m0 0" p-id="4803" fill="#FA6400"></path><path d="M1177.770553 1009.400666H549.453431c-3.547502 0-6.685676 3.138175-6.685676 6.685676 0 3.547502 3.138175 6.685676 6.685676 6.685677h628.317122c3.547502 0 6.685676-3.138175 6.685676-6.685677 0-3.547502-3.138175-6.685676-6.685676-6.685676z m156.226516 0h-88.960427c-3.547502 0-6.685676 3.138175-6.685676 6.685676 0 3.547502 3.138175 6.685676 6.685676 6.685677h88.960427c3.547502 0 6.685676-3.138175 6.685676-6.685677 0-3.547502-2.728847-6.685676-6.685676-6.685676z m-991.936043 0h-98.647835c-3.547502 0-6.685676 3.138175-6.685676 6.685676 0 3.547502 3.138175 6.685676 6.685676 6.685677h98.647835c3.547502 0 6.685676-3.138175 6.685676-6.685677-0.136442-3.547502-3.138175-6.685676-6.685676-6.685676z m-172.5996 0H107.925916c-3.547502 0-6.685676 3.138175-6.685676 6.685676 0 3.547502 3.138175 6.685676 6.685676 6.685677h61.53551c3.547502 0 6.685676-3.138175 6.685676-6.685677 0-3.547502-3.138175-6.685676-6.685676-6.685676z m1220.340573-858.768288h-15.417988v-13.780679c0-3.547502-3.138175-6.685676-6.685677-6.685676-3.547502 0-6.685676 3.138175-6.685676 6.685676v13.780679H1345.458228c-3.547502 0-6.685676 3.138175-6.685676 6.685677s3.138175 6.685676 6.685676 6.685676h15.417988v13.780679c0 3.547502 3.138175 6.685676 6.685676 6.685677 3.547502 0 6.685676-3.138175 6.685676-6.685677v-13.780679h15.417988c3.547502 0 6.685676-3.138175 6.685677-6.685676s-3.001732-6.685676-6.549234-6.685677z m-1100.953498 3.956829h16.373085V169.188541c0 3.547502 3.138175 6.685676 6.685676 6.685676 3.547502 0 6.685676-3.138175 6.685676-6.685676v-14.599334h16.373085c3.547502 0 6.685676-3.138175 6.685676-6.685676 0-3.547502-3.138175-6.685676-6.685676-6.685676h-16.373085V126.754963c0-3.547502-3.138175-6.685676-6.685676-6.685676-3.547502 0-6.685676 3.138175-6.685676 6.685676v14.599334h-16.373085c-3.547502 0-6.685676 3.138175-6.685676 6.685676 0.136442 3.547502 2.728847 6.549234 6.685676 6.549234z m158.000266 642.507129h-15.00866v-13.23491c0-3.547502-3.138175-6.685676-6.685677-6.685676-3.547502 0-6.685676 3.138175-6.685676 6.685676v13.23491h-15.008661c-3.547502 0-6.685676 3.138175-6.685676 6.685676s3.138175 6.685676 6.685676 6.685676h15.008661v13.23491c0 3.547502 3.138175 6.685676 6.685676 6.685676 3.547502 0 6.685676-3.138175 6.685677-6.685676V810.467688h15.00866c3.547502 0 6.685676-3.138175 6.685677-6.685676s-3.138175-6.685676-6.685677-6.685676z m473.045703 160.183344h6.139907v5.321253c0 3.547502 3.138175 6.685676 6.685676 6.685676 3.547502 0 6.685676-3.138175 6.685677-6.685676v-5.321253h6.139906c3.547502 0 6.685676-3.138175 6.685676-6.685676s-3.138175-6.685676-6.685676-6.685676h-6.139906V938.723518c0-3.547502-3.138175-6.685676-6.685677-6.685677-3.547502 0-6.685676 3.138175-6.685676 6.685677v5.321252h-6.139907c-3.547502 0-6.685676 3.138175-6.685676 6.685676s2.728847 6.549234 6.685676 6.549234z m325.142172-219.535776c3.547502 0 6.685676-3.138175 6.685676-6.685676V725.873418h6.139907c3.547502 0 6.685676-3.138175 6.685676-6.685676 0-3.547502-3.138175-6.685676-6.685676-6.685677h-6.139907v-5.321252c0-3.547502-3.138175-6.685676-6.685676-6.685676-3.547502 0-6.685676 3.138175-6.685676 6.685676v5.321252H1232.211059c-3.547502 0-6.685676 3.138175-6.685676 6.685677 0 3.547502 3.138175 6.685676 6.685676 6.685676h6.139907v5.321252c0.136442 3.547502 3.138175 6.549234 6.685676 6.549234zM346.427182 476.32032h-8.459427v-7.504331c0-2.592405-1.773751-4.366156-4.366156-4.366156-2.592405 0-4.366156 1.773751-4.366156 4.366156v7.504331H320.776016c-2.592405 0-4.366156 1.773751-4.366156 4.366156 0 2.592405 1.773751 4.366156 4.366156 4.366156h8.459427v7.50433c0 2.592405 1.773751 4.366156 4.366156 4.366156 2.592405 0 4.366156-1.773751 4.366156-4.366156v-7.50433h8.459427c2.592405 0 4.366156-1.773751 4.366156-4.366156 0-2.592405-2.183078-4.366156-4.366156-4.366156z m0 0" p-id="4804" fill="#FA6400"></path><path d="M647.146169 452.988674c4.366156 0.272885 8.595869-1.910193 11.051832-5.594137 2.455963-3.683944 2.592405-8.459427 0.682212-12.416256-2.046636-3.956829-6.003464-6.549234-10.36962-6.822118-4.366156-0.272885-8.595869 1.910193-11.051832 5.594137-2.455963 3.683944-2.592405 8.459427-0.682212 12.416256 1.910193 4.093271 5.867022 6.685676 10.36962 6.822118z m0 0M689.17042 444.11992l0.545769-8.868754 127.164291 8.732312-0.54577 8.868754-127.16429-8.732312z m0 0" p-id="4805" fill="#FA6400"></path><path d="M898.200133 462.53964c0 6.685676 3.547502 12.825583 9.278082 16.1002 5.73058 3.274617 12.825583 3.274617 18.556162 0 5.73058-3.274617 9.278081-9.414524 9.278081-16.1002s-3.547502-12.825583-9.278081-16.1002c-5.73058-3.274617-12.825583-3.274617-18.556162 0-5.73058 3.411059-9.278081 9.550966-9.278082 16.1002z m0 0M863.680213 544.81439c0 11.188274 9.141639 20.329913 20.329914 20.329914s20.329913-9.141639 20.329913-20.329914-9.141639-20.329913-20.329913-20.329913-20.329913 9.141639-20.329914 20.329913z m0 0M661.881945 544.81439c0 8.868754 4.775483 17.055296 12.416256 21.421453 7.640773 4.366156 17.055296 4.366156 24.832512 0 7.640773-4.366156 12.416256-12.552698 12.416256-21.421453s-4.775483-17.055296-12.416256-21.421452c-7.640773-4.366156-17.055296-4.366156-24.832512 0-7.640773 4.502598-12.416256 12.689141-12.416256 21.421452z m0 0M727.783611 503.745237c0 5.867022 3.138175 11.188274 8.186542 14.190006 5.048368 2.86529 11.324717 2.86529 16.373085 0 5.048368-2.86529 8.186542-8.322985 8.186542-14.190006 0-5.867022-3.138175-11.188274-8.186542-14.190007-5.048368-2.86529-11.324717-2.86529-16.373085 0-5.048368 2.86529-8.186542 8.322985-8.186542 14.190007z m0 0M801.735376 511.658894c0 3.001732 1.637308 5.73058 4.229714 7.231446s5.867022 1.500866 8.459427 0c2.592405-1.500866 4.229714-4.229714 4.229714-7.231446 0-3.001732-1.637308-5.73058-4.229714-7.231446-2.592405-1.500866-5.867022-1.500866-8.459427 0-2.592405 1.500866-4.229714 4.229714-4.229714 7.231446z m0 0" p-id="4806" fill="#FA6400"></path><path d="M595.707395 331.145636c3.001732 0.136442 5.867022-1.364424 7.504331-3.820386 1.637308-2.455963 1.773751-5.73058 0.409327-8.459427s-4.093271-4.366156-7.095004-4.639041c-3.001732-0.136442-5.867022 1.364424-7.50433 3.820387-1.637308 2.455963-1.773751 5.73058-0.409327 8.459427s4.093271 4.502598 7.095003 4.63904z m0 0M1084.853298 261.287142c3.547502 0 6.685676-3.138175 6.685676-6.685676v-30.153764c0-3.547502-3.138175-6.685676-6.685676-6.685677-3.547502 0-6.685676 3.138175-6.685676 6.685677v30.153764c0.136442 3.547502 2.728847 6.685676 6.685676 6.685676z m42.979347-34.51992c-3.138175-1.773751-7.095003-0.409327-8.868754 2.592405l-16.373085 28.78934c-1.773751 3.138175-0.818654 7.095003 2.592405 8.868755 3.138175 1.773751 7.095003 0.818654 9.278081-2.592406l16.373085-28.78934c1.364424-3.138175 0.136442-7.095003-3.001732-8.868754z m30.017322 33.155496c-1.773751-3.138175-5.73058-4.366156-8.868754-3.138174l-24.832512 12.416255c-3.547502 1.364424-4.911925 5.321252-3.547502 8.868755s5.321252 4.911925 8.868754 3.547501c0 0 0.409327 0 0.409327-0.409327l24.832512-12.416256c3.138175-1.773751 4.502598-5.73058 3.138175-8.868754zM583.154697 555.866223c3.547502 0 6.685676-3.138175 6.685676-6.685677v-1.773751c-0.409327-2.592405-65.901666-277.796669-80.910326-337.558427-16.373085-64.537242-66.310993-65.901666-66.856763-65.901666l-59.352431-3.138174c-3.547502 0-6.685676 2.592405-7.095004 6.139906-0.409327 3.547502 2.592405 6.685676 6.139907 7.095004l59.761759 3.138174c0.409327 0 40.2505 0.955097 54.031179 55.80493 15.008661 59.761759 80.091672 334.556696 80.910327 337.149101 0.955097 3.547502 3.547502 5.73058 6.685676 5.73058z m77.908594 203.981345c-29.198668-1.773751-54.440506 20.739241-55.80493 50.483678-1.773751 29.198668 20.739241 54.440506 50.483678 55.80493h2.592405c29.198668 0.818654 53.48541-22.512991 54.440506-51.711659 0.955097-29.33511-22.512991-54.031179-51.711659-54.576949z m37.112325 55.395603c-1.364424 22.103664-19.920586 38.886076-42.02425 37.658095-22.103664-1.364424-38.886076-19.920586-37.658095-42.024251 1.364424-21.28501 18.556163-37.658095 39.841173-37.658094h2.183078c22.240107 0.818654 39.022518 19.374817 37.658094 42.02425 0-0.409327 0-0.409327 0 0zM923.851299 765.71459c-29.198668-1.773751-54.440506 20.739241-55.80493 50.483678-1.773751 29.198668 20.739241 54.440506 50.483678 55.80493h2.592405c29.198668 0.955097 53.48541-22.512991 54.440506-51.711659 0.955097-29.471552-22.512991-54.167622-51.711659-54.576949z m37.112325 54.849834c-1.364424 22.103664-19.920586 38.886076-42.02425 37.658094-22.103664-1.364424-38.886076-19.920586-37.658095-42.02425 1.364424-21.28501 18.556163-37.658095 39.841173-37.658095h2.183078c21.830779 1.227981 38.613191 19.920586 37.658094 42.024251z m0 0" p-id="4807" fill="#FA6400"></path><path d="M1051.288474 305.903797L631.864624 313.953897c-3.547502 0-6.685676 3.138175-6.685677 6.685677 0 3.547502 3.138175 6.685676 6.685677 6.685676l420.242505-8.0501h0.818654c7.095003-1.364424 22.512991-1.773751 28.380013 4.366156 2.592405 2.592405 3.138175 7.50433 1.364424 13.23491L1052.107129 403.323651H711.410526c-2.592405 0-4.366156 1.773751-4.366156 4.366156s1.773751 4.366156 4.366156 4.366156h336.739774l-64.127915 138.489007c-4.911925 10.233178-21.28501 36.702998-39.841172 37.658095l-348.200933-1.773751c-5.321252 0-11.051832 0.955097-16.373085 2.183078-29.198668 3.956829-49.937908 30.972418-45.981079 60.580413 1.364424 10.233178 5.73058 19.511259 12.006929 27.015589 2.592405 3.547502 6.139907 7.095003 10.233178 9.278082 8.868754 6.685676 19.920586 10.233178 30.972418 10.233178h5.73058c6.685676 0.409327 13.23491 0.818654 19.920586 0.818654 57.032911 0.409327 388.860759 1.773751 391.998934 1.773751 3.547502 0 6.685676-3.138175 6.685676-6.685677 0-3.547502-3.138175-6.685676-6.685676-6.685676-3.547502 0-334.966023-1.364424-391.998934-1.773751-6.685676 0-12.825583-0.409327-19.511259-0.818654-13.78068-1.364424-23.877415-3.547502-30.017322-7.913657-1.773751-1.364424-3.547502-2.592405-5.321253-4.911926v-0.409327l-1.364423-1.364424c-3.956829-5.73058-5.73058-14.599334-5.321253-28.380013 0.409327-25.241839 17.191739-34.929247 31.791073-38.067422 4.366156-0.955097 8.868754-1.773751 13.23491-1.773751l348.61026 1.773751c30.972418-1.364424 50.893005-43.388674 51.711659-45.162425l99.057161-214.214523 0.409328-0.955097c3.138175-11.051832 1.773751-19.920586-3.956829-26.606262-11.734044-12.416256-35.611459-8.868754-40.523385-8.459428z m0 0" p-id="4808" fill="#FA6400"></path></svg>